<svg width="210" height="88" viewBox="0 0 210 88" fill="none" xmlns="http://www.w3.org/2000/svg">
<path d="M30.3093 13.4191C33.1698 16.1442 33.5102 20.2805 32.4001 23.9102C31.4058 27.1597 29.4899 30.2526 26.7491 32.2638C21.5246 36.0967 14.5093 36.9534 8.98473 33.3072C5.66139 31.1134 4.19347 27.831 4.01586 23.8278C3.75349 17.8849 6.77006 11.8047 11.2505 8.0226C14.015 5.68972 17.2007 4.37685 20.8075 4.08398C25.7723 3.68038 30.7331 4.72097 34.9727 7.43366C39.6388 10.4195 41.0126 15.8586 41.1229 21.1454C41.1399 21.9471 41.0888 22.7941 40.9695 23.6864C40.7058 25.6578 40.3385 27.2324 39.3321 28.9128C38.8558 29.709 38.0417 30.5958 37.0299 30.4242C36.3357 30.3075 36.0329 29.7214 36.1809 29.0446C36.7299 26.5364 37.1591 24.1065 37.2049 21.5833C37.2667 18.1512 36.9707 14.0259 34.4426 11.3091C33.9196 10.7463 33.2146 10.1857 32.3275 9.62742C30.4223 8.42758 28.1605 7.38149 25.9445 6.97239C22.4046 6.31756 18.1407 7.32933 15.2668 9.54643C10.7231 13.0512 6.89788 19.8343 8.43173 25.8184C8.86767 27.5194 9.65074 28.6876 11.0729 29.72C12.7763 30.9569 14.7999 31.5225 16.9083 31.2987C17.5662 31.2287 18.247 31.1916 18.8686 31.0242C20.8214 30.4988 22.5745 29.5996 24.1281 28.3266C26.9832 25.9873 30.5918 20.1611 28.365 16.394C27.3654 14.7014 25.2906 13.7445 23.3948 13.323C21.8771 12.9862 20.4675 13.1135 19.166 13.7047C17.215 14.5902 15.696 16.4709 14.9196 18.5068C14.1702 20.4699 14.4676 22.8943 16.0714 24.3385C17.1119 25.2748 18.2569 25.4075 19.5064 24.7367C21.0053 23.9308 22.4732 22.4344 23.0302 20.7294C23.2253 20.1336 23.2132 19.3538 23.337 18.6688C23.4527 18.0167 24.0326 17.4497 24.5062 18.2528C27.0155 22.5072 22.5943 27.5331 18.6291 28.1989C14.7824 28.8455 11.5223 25.143 11.4644 21.3966C11.4402 19.8192 11.4658 18.6633 12.1291 17.2054C13.5957 13.9793 15.9261 11.6674 19.3059 10.7916C22.7974 9.88551 27.625 10.8616 30.3093 13.4191Z" fill="white"/>
<path d="M54.7755 10.2315C54.7835 10.2543 54.7964 10.2751 54.8133 10.2921C54.8303 10.3092 54.8508 10.3221 54.8733 10.3299C54.8958 10.3377 54.9198 10.3402 54.9434 10.3371C54.967 10.3341 54.9897 10.3257 55.0096 10.3125C56.9296 9.03711 59.1833 9.3913 61.0132 10.7449C63.7378 12.7616 63.2292 18.0854 62.1905 20.923C61.2836 23.3995 59.7874 25.478 58.4191 27.6731C58.2585 27.9303 58.1347 28.1806 58.0477 28.424C58.0356 28.4578 58.034 28.4946 58.0431 28.5294C58.0523 28.5642 58.0717 28.5952 58.0989 28.6182C58.126 28.6412 58.1594 28.6551 58.1946 28.6579C58.2298 28.6608 58.2649 28.6524 58.2953 28.6341C60.1211 27.5372 62.1609 25.6949 62.913 23.637C63.762 21.3156 64.4912 18.8802 66.9508 17.8135C68.2855 17.2356 69.1829 18.2075 68.6313 19.5309C68.3128 20.296 68.0236 21.0726 67.7634 21.8606C67.267 23.3693 66.7395 24.5802 66.161 25.9324C65.791 26.7931 65.6578 27.912 66.9521 27.8996C67.5266 27.8955 67.863 27.1432 68.0285 26.649C68.7793 24.3976 69.5502 21.5064 71.9533 20.496C72.7067 20.1803 73.5934 20.2777 74.3994 20.3807C76.4001 20.6374 77.4052 22.1063 77.9501 23.9226C78.6605 26.2962 78.6201 28.5352 77.3338 30.7166C77.3239 30.7333 77.3186 30.7525 77.3184 30.772C77.3182 30.7915 77.3232 30.8108 77.3329 30.8276C77.3425 30.8445 77.3564 30.8584 77.3732 30.8679C77.3899 30.8773 77.4089 30.882 77.428 30.8814C79.2337 30.8274 80.4998 31.6236 81.2263 33.2701C82.4803 36.1104 81.5344 39.839 78.7883 41.3944C77.6352 42.0479 76.6059 42.111 75.3035 42.1371C75.2735 42.1376 75.2441 42.1457 75.2179 42.1607C75.1917 42.1757 75.1695 42.197 75.1534 42.2229C75.1372 42.2487 75.1276 42.2782 75.1254 42.3088C75.1232 42.3393 75.1285 42.37 75.1407 42.398C75.4062 43.0111 75.7628 43.5639 76.2104 44.0563C77.4267 45.3934 79.7059 46.3681 81.4887 46.0291C82.0906 45.9147 82.6844 45.7664 83.2701 45.5843C83.454 45.5266 83.6742 45.5234 83.9307 45.5747C83.9498 45.5781 83.967 45.5883 83.9795 45.6033C83.992 45.6183 83.999 45.6373 83.9994 45.657C84.0263 46.677 83.2069 47.4197 82.3525 47.7972C79.6656 48.9834 75.7394 48.1569 73.7145 45.9755C73.7025 45.9626 73.6873 45.9533 73.6706 45.9486C73.6538 45.9438 73.636 45.9439 73.6193 45.9487C73.6025 45.9535 73.5874 45.9629 73.5755 45.9758C73.5635 45.9888 73.5553 46.0048 73.5517 46.0222C73.3597 46.9292 73.17 47.821 72.9826 48.6978C72.0273 53.1636 70.1073 57.5017 66.9454 60.7264C65.7035 61.9922 64.1979 63.2469 62.6802 64.2367C62.56 64.3154 62.5327 64.4193 62.5981 64.5484C62.8645 65.0783 62.9453 65.5739 63.0731 66.1463C63.6499 68.7291 64.0432 70.9059 64.2531 72.6768C64.4361 74.2171 64.6809 75.6929 64.724 77.0204C64.7679 78.3447 64.7383 79.4649 64.6352 80.3811C64.5585 81.0579 63.8683 81.3105 63.3503 81.5864C63.0004 81.7731 61.5379 83.2997 61.4343 82.0765C61.3554 81.1466 61.3006 80.2163 61.2701 79.2856C61.2217 77.8345 61.0145 76.3903 60.9244 74.9296C60.8261 73.3111 60.5221 71.6335 60.4306 70.2977C60.331 68.8425 59.9852 67.5631 59.3932 66.4593C59.3663 66.4081 59.33 66.3998 59.2842 66.4346C58.8043 66.7952 58.289 67.0954 57.7383 67.3352C57.68 67.3606 57.632 67.4053 57.6019 67.4622C57.5719 67.519 57.5616 67.5846 57.5728 67.6482C57.7033 68.4046 57.8876 69.1761 57.9535 69.9174C58.1257 71.887 58.1558 73.7188 58.0437 75.4128C57.971 76.5207 56.608 77.5805 55.716 77.9471C55.1016 78.1987 54.3158 78.3671 53.3587 78.4523C51.2826 78.6362 48.7262 78.2669 46.7188 78.1804C44.2633 78.0734 41.7149 78.1283 39.3751 78.1159C37.1999 78.1049 35.0247 78.093 32.8495 78.0802C31.7893 78.0738 30.9255 77.975 30.2581 77.7837C29.3522 77.5247 28.8961 76.8685 28.8898 75.8151C28.879 73.8876 28.8763 71.957 28.8817 70.0232C28.8822 69.942 28.8581 69.8627 28.8128 69.7961C28.7675 69.7295 28.7033 69.6789 28.6288 69.6511C27.9574 69.3985 27.4192 69.0361 26.589 69.2983C26.5495 69.3111 26.5195 69.3354 26.4989 69.3711C26.4253 69.5019 26.3872 69.5939 26.3845 69.647C26.2809 71.639 25.9661 73.6721 26.0091 75.6531C26.0692 78.3585 26.1638 81.0798 26.293 83.8172C26.2943 83.8446 26.2893 83.8718 26.2783 83.8968C26.2674 83.9218 26.2508 83.9438 26.23 83.961C26.2092 83.9783 26.1846 83.9903 26.1584 83.9961C26.1322 84.0019 26.105 84.0013 26.0791 83.9943C25.775 83.9129 25.5194 83.7518 25.3121 83.5111C24.5143 82.5817 23.3599 83.1583 22.9199 81.6303C22.4947 80.1477 22.3274 78.6321 22.418 77.0836C22.5436 74.9502 22.5911 72.8146 22.5606 70.6766C22.5436 69.4832 22.6418 68.3012 22.8553 67.1306C22.8643 67.084 22.8517 67.0441 22.8176 67.0112C22.5929 66.8012 22.2646 66.7037 22.0655 66.5788C14.0101 61.4911 8.48017 52.9824 7.55852 43.2848C7.34459 41.0279 7.50201 38.7325 7.99311 36.5621C8.13304 35.9443 8.5165 34.7404 9.13139 34.4329C9.58526 34.2068 9.98846 34.3267 10.341 34.7925C10.3689 34.8299 10.384 34.8758 10.384 34.923C10.3975 37.6302 10.119 40.5062 10.602 43.3342C12.4467 54.1191 20.1024 63.1014 30.3564 66.1532C32.1037 66.673 34.0349 67.0428 36.15 67.2624C38.3472 67.4903 40.2564 67.677 42.3285 67.6084C43.456 67.5713 44.7934 67.375 46.0299 67.224C46.5815 67.1572 47.0704 67.0762 47.4964 66.981C53.0829 65.7359 58.2253 63.0547 62.6681 59.4127C65.2985 57.2546 67.092 54.8508 68.3433 51.567C69.1399 49.4757 69.6435 47.5309 69.8543 45.7325C70.1234 43.4399 70.4087 41.5633 70.4248 38.8959C70.4369 36.6925 70.5459 34.599 70.6024 32.4519C70.6141 31.9952 70.78 31.5252 71.1002 31.042C72.003 29.6815 73.5961 28.3211 74.1572 26.1644C74.3428 25.4491 74.1518 24.4511 73.584 23.9267C73.5454 23.891 73.5095 23.8937 73.4764 23.9349C73.1202 24.3761 72.8103 24.9366 72.5466 25.6166C71.8577 27.3967 71.3962 28.6199 71.1621 29.2862C70.9213 29.974 70.6468 30.6302 70.0265 31.042C69.2044 31.5898 68.2101 32.1691 67.2508 32.224C65.1505 32.3421 63.4148 30.6054 62.5389 28.7974C62.5093 28.737 62.486 28.7398 62.469 28.8057C62.4367 28.9338 62.3977 29.0253 62.3519 29.0802C61.2634 30.3899 59.6731 31.6817 58.0208 31.8478C56.343 32.0167 54.3449 31.1093 53.7354 29.418C52.8138 26.8673 54.6571 23.5478 56.1183 21.5888C56.6511 20.8735 57.566 19.8384 58.0598 19.012C58.7469 17.8643 59.1604 16.6073 59.3004 15.2409C59.3865 14.4007 59.3824 13.1789 58.341 12.9881C56.9929 12.741 55.825 14.1481 55.3662 15.2642C55.2657 15.5095 55.2061 15.8252 55.1872 16.2115C55.089 18.2007 54.6517 20.7651 52.5985 21.6368C51.7186 22.0102 50.7323 21.8194 50.2412 20.9642C49.6559 19.9428 50.0919 18.6866 50.5749 17.6447C51.0041 16.7208 51.2719 15.4811 51.2517 14.4076C51.2275 13.0691 50.9449 9.6288 48.9253 9.78392C46.7847 9.95004 46.4429 16.8924 46.4779 18.5096C46.5142 20.2118 46.743 21.9594 47.4978 23.4709C48.1921 24.863 48.7809 26.2994 49.2644 27.7802C49.5833 28.7563 49.0828 29.8133 47.9324 29.6527C47.487 29.5896 47.1991 29.3603 46.7228 29.0308C43.2205 26.6037 42.0459 23.1387 41.8266 18.9708C41.7297 17.1395 41.6719 15.4907 42.0311 13.8763C42.1809 13.1972 42.4011 12.4152 42.6917 11.5301C43.4196 9.30481 43.7923 8.01299 45.4419 6.68273C47.635 4.91179 50.7283 5.29069 52.729 7.06849C53.6507 7.88806 54.3651 9.03848 54.7755 10.2315ZM74.4989 38.8204C76.1269 38.7312 77.9043 37.6549 78.2407 35.9471C78.3941 35.1701 78.1923 33.7945 77.1132 33.881C76.2072 33.9533 75.3264 34.2214 74.4707 34.6855C74.4511 34.6959 74.4339 34.7103 74.42 34.7277C74.4061 34.7452 74.3959 34.7654 74.3899 34.7871C74.3567 34.906 74.3379 35.0515 74.3334 35.2236C74.3029 36.3951 74.3146 37.5537 74.3684 38.6996C74.3691 38.7163 74.373 38.7327 74.38 38.7478C74.3869 38.763 74.3968 38.7766 74.4089 38.7878C74.4211 38.7991 74.4353 38.8077 74.4507 38.8133C74.4662 38.8189 74.4825 38.8213 74.4989 38.8204ZM31.5888 74.6345C33.9905 74.3297 36.4568 74.3105 38.8746 74.1416C44.196 73.771 49.5147 74.1087 54.8347 74.2336C54.8546 74.234 54.8744 74.23 54.8926 74.2218C54.9109 74.2136 54.9271 74.2014 54.9402 74.1861C54.9533 74.1708 54.9629 74.1527 54.9684 74.1331C54.9739 74.1136 54.9751 74.093 54.9719 74.073C54.6732 72.2732 54.7876 70.6396 54.8172 68.8219C54.8181 68.7652 54.7939 68.7501 54.7446 68.7766C54.5777 68.8645 54.4163 68.9826 54.2615 69.0485C50.1242 70.7961 45.8684 71.5621 41.4162 71.6376C39.807 71.6651 38.0512 71.4179 36.3653 71.2752C34.7467 71.1379 33.2478 70.8249 31.6884 70.5174C31.6665 70.5129 31.6438 70.5135 31.6221 70.5191C31.6004 70.5247 31.5802 70.5351 31.5628 70.5497C31.5455 70.5642 31.5315 70.5826 31.5218 70.6033C31.5121 70.6241 31.5069 70.6467 31.5067 70.6698L31.4973 74.5521C31.4972 74.5638 31.4996 74.5753 31.5043 74.586C31.509 74.5967 31.5159 74.6062 31.5245 74.614C31.5332 74.6218 31.5434 74.6277 31.5545 74.6312C31.5656 74.6347 31.5773 74.6358 31.5888 74.6345Z" fill="white"/>
<path d="M67.6921 8.92729C68.1227 7.17832 69.6431 5.43621 71.5658 5.8508C73.9163 6.35737 73.8585 9.38581 72.7848 11.0016C71.7667 12.5346 70.4844 13.8438 68.938 14.9292C68.1523 15.4811 67.7379 14.5037 67.6746 13.901C67.4984 12.1836 67.2683 10.6433 67.6921 8.92729Z" fill="white"/>
<path d="M39.9389 46.6949C38.8019 45.8424 38.9325 43.595 39.4074 42.468C39.7357 41.6896 40.4394 41.0993 41.2924 41.0238C42.3374 40.9313 43.0788 41.4269 43.5165 42.5105C44.1233 44.0096 44.313 46.4203 42.3769 47.0545C41.4673 47.352 40.6547 47.2321 39.9389 46.6949Z" fill="white"/>
<path d="M32.1014 47.7588C30.6322 46.4436 30.2972 44.243 31.3453 42.6107C32.0409 41.529 33.416 41.3011 34.4251 42.0589C35.9401 43.1956 36.0773 45.6543 35.3669 47.2371C34.7399 48.6319 33.1388 48.6882 32.1014 47.7588Z" fill="white"/>
<path d="M38.8073 53.1457C37.9947 55.0691 36.0814 56.0849 34.0282 55.9504C32.8657 55.8749 31.8714 55.2709 32.0194 53.9296C32.0961 53.235 32.4755 53.3723 33.0419 53.445C33.5093 53.5036 33.9524 53.359 34.3713 53.0112C35.1691 52.3468 34.604 51.5107 34.8234 50.6307C35.1041 49.5124 35.8208 48.9047 36.9734 48.8076C37.3919 48.7733 37.8399 49.0149 38.2786 48.8516C39.219 48.5001 40.4286 48.3464 41.322 48.7884C42.5047 49.3746 42.5814 50.6211 42.6702 51.869C42.6738 51.9139 42.6962 51.9445 42.7375 51.961C43.4183 52.2374 44.1094 52.3069 44.8109 52.1697C45.5253 52.0283 46.521 51.1099 47.0605 52.2369C47.413 52.9755 46.7457 53.6564 46.151 53.9722C43.8515 55.1926 40.9318 55.043 39.0199 53.1032C39.0049 53.0879 38.9864 53.0766 38.9661 53.0703C38.9457 53.064 38.9241 53.0629 38.9032 53.0671C38.8822 53.0713 38.8626 53.0806 38.8459 53.0943C38.8292 53.1081 38.8159 53.1257 38.8073 53.1457Z" fill="white"/>
<path d="M123.697 64.7834C120.697 65.961 117.723 66.0916 115.006 64.4179C114.988 64.4061 114.965 64.402 114.943 64.4064C114.921 64.4109 114.901 64.4235 114.887 64.4419C109.449 71.8783 98.5942 76.2594 89.7298 72.6456C82.5649 69.7271 79.2179 62.7756 79.7892 55.2774C80.1483 50.5608 82.1442 45.9069 85.0702 42.2348C88.9249 37.3962 99.2328 29.4152 105.628 34.5627C106.498 35.2641 107.55 35.9625 108.139 36.8836C109.786 39.4655 109.369 42.3181 107.561 44.6781C105.221 47.7348 100.992 48.5809 97.3009 49.0556C95.2576 49.3189 93.3655 49.4506 91.6246 49.4506C90.602 49.4508 89.6492 49.1741 88.7121 48.8424C88.6829 48.8325 88.6512 48.834 88.6231 48.8467C88.5951 48.8593 88.5729 48.8822 88.5611 48.9106C87.9788 50.3231 87.5467 51.6701 87.2649 52.9518C86.5424 56.2423 86.7236 60.8437 89.1833 63.4558C89.8582 64.172 90.7889 64.7814 91.9754 65.2841C95.6526 66.8406 99.3095 66.6425 102.986 65.2119C106.004 64.0368 108.965 62.2276 111.235 59.8589C111.275 59.8166 111.287 59.7683 111.271 59.7137C109.279 52.3219 111.653 44.4886 117.848 39.8584C119.139 38.8934 120.978 38.7955 122.208 39.8531C123.381 40.8596 123.74 42.8414 123.552 44.3604C122.876 49.8176 120.811 55.5723 117.549 60.1326C117.539 60.1459 117.533 60.1612 117.531 60.1773C117.529 60.1933 117.53 60.2097 117.536 60.225C117.541 60.2404 117.55 60.2542 117.562 60.2655C117.573 60.2767 117.587 60.285 117.603 60.2897C120.672 61.1922 124.153 58.8796 126.194 56.7781C126.525 56.4357 126.788 55.9608 127.008 55.4641C130.173 48.3291 134.233 40.6312 138.194 33.942C138.795 32.9289 139.526 31.8329 140.389 30.6538C141.203 29.5419 142.987 26.7733 144.696 27.6509C147.704 29.1979 143.632 38.6255 142.488 40.6915C140.479 44.32 138.28 47.8225 135.89 51.199C135.878 51.2151 135.871 51.2339 135.87 51.2535C135.868 51.2731 135.871 51.2928 135.88 51.3106C135.888 51.3284 135.901 51.3437 135.917 51.3548C135.934 51.366 135.952 51.3726 135.972 51.3741C138.254 51.5599 140.479 51.9591 142.633 52.0338C142.783 52.0386 142.902 51.9461 142.989 51.7563C145.174 47.0015 147.64 42.3998 150.387 37.9512C152.101 35.1748 153.719 32.7923 155.912 30.4879C156.974 29.3739 158.327 28.2361 159.982 28.4933C161.68 28.7572 162.2 30.6949 161.907 32.1474C160.53 38.9686 156.42 45.588 151.473 50.3549C151.464 50.363 151.458 50.3734 151.455 50.3848C151.452 50.3963 151.452 50.4085 151.455 50.42C151.459 50.4315 151.465 50.442 151.474 50.4504C151.483 50.4587 151.494 50.4646 151.506 50.4673C153.678 50.9319 156.187 51.2563 158.379 50.7782C159.234 50.5928 159.281 49.9528 159.543 49.237C161.163 44.8396 164.375 41.4499 168.366 39.095C169.727 38.291 171.524 37.7872 173.024 38.2809C175.855 39.2144 175.666 42.4619 174.504 44.5592C172.214 48.6876 167.51 51.4256 163.254 53.1113C162.795 53.2921 162.387 53.6483 162.431 54.1858C162.521 55.2507 163.807 55.8354 164.721 55.804C165.489 55.7786 166.302 55.6269 167.096 55.3937C169.4 54.7161 171.621 53.8247 173.758 52.7193C173.807 52.694 173.845 52.6519 173.866 52.6006C174.307 51.4981 174.637 50.7249 174.857 50.2809C177.331 45.2853 182.011 41.9888 187.008 39.8874C188.702 39.1758 191.549 38.469 193.15 39.7231C194.674 40.9152 194.318 43.2884 193.294 44.7156C191.444 47.2945 188.381 49.3928 185.648 51.0896C183.224 52.5937 180.789 54.0708 178.342 55.5211C178.328 55.5298 178.316 55.5421 178.308 55.5568C178.3 55.5714 178.296 55.5879 178.297 55.6045C178.297 55.6211 178.302 55.6373 178.311 55.6514C178.32 55.6655 178.332 55.677 178.347 55.6847C180.687 56.9005 183.421 56.501 185.893 55.9749C189.98 55.1047 194.089 54.3526 198.22 53.7189C199.146 53.5767 200.356 53.7625 200.088 55.0509C199.906 55.9265 198.713 56.4709 197.95 56.8166C195.289 58.0215 192.561 59.0491 189.767 59.8995C185.044 61.3377 177.939 62.6182 174.533 57.7467C174.482 57.6742 174.407 57.6217 174.321 57.5983C174.236 57.575 174.145 57.5822 174.064 57.6188C171.822 58.6268 169.483 59.3726 167.049 59.8564C163.433 60.575 159.956 59.0702 158.821 55.3932C158.806 55.3444 158.774 55.3022 158.731 55.2741C158.689 55.246 158.638 55.2337 158.588 55.2392C157.109 55.4022 155.638 55.3483 154.176 55.0774C154.104 55.0633 154.075 55.0925 154.089 55.1649C154.202 55.7995 154.363 56.4662 154.414 57.0512C154.924 62.8751 153.51 69.1356 149.753 73.8533C148.561 75.3496 147.128 76.6123 145.297 77.2344C142.799 78.0846 140.415 76.8452 139.166 74.5975C137.367 71.3594 137.694 67.3778 138.545 63.9474C139.208 61.2802 140.065 58.6801 141.116 56.1472C141.124 56.1284 141.127 56.1081 141.126 56.0879C141.124 56.0676 141.117 56.0481 141.106 56.031C141.095 56.0139 141.081 55.9996 141.063 55.9895C141.045 55.9793 141.026 55.9736 141.005 55.9727C139.467 55.8942 137.945 55.7018 136.439 55.3954C136.422 55.3919 136.405 55.3934 136.389 55.3996C136.373 55.4058 136.359 55.4166 136.349 55.4305C136.34 55.4444 136.334 55.461 136.333 55.478C136.333 55.4951 136.337 55.5119 136.346 55.5265C136.972 56.5991 137.338 57.7759 137.444 59.0571C137.832 63.7593 135.857 68.6398 132.653 72.0096C131.708 73.0051 130.399 73.9308 129.014 74.2941C126.002 75.0853 123.975 72.6924 123.502 69.9917C123.23 68.4327 123.365 66.4484 123.755 64.8346C123.769 64.779 123.749 64.7619 123.697 64.7834ZM143.336 29.9139C141.392 32.6285 139.645 35.4625 138.096 38.4161C136.176 42.0706 134.277 45.7292 132.516 49.4641C132.306 49.9085 132.07 50.3383 131.807 50.7536C131.757 50.8303 131.747 50.904 131.774 50.9747C131.778 50.9853 131.785 50.9946 131.794 51.0016C131.803 51.0086 131.813 51.0131 131.824 51.0146C131.836 51.0161 131.847 51.0145 131.857 51.01C131.868 51.0055 131.877 50.9983 131.883 50.9891C134.111 47.8432 136.27 44.6575 138.361 41.4321C140.72 37.7932 142.663 34.0016 143.768 29.7843C143.772 29.7673 143.772 29.7493 143.767 29.7324C143.762 29.7154 143.752 29.7002 143.739 29.6884C143.726 29.6765 143.709 29.6685 143.692 29.6652C143.674 29.662 143.656 29.6635 143.639 29.6697C143.523 29.7135 143.422 29.7949 143.336 29.9139ZM149.558 46.0609C153.616 42.0357 156.862 37.6955 158.748 32.232C158.755 32.212 158.755 32.1903 158.747 32.1705C158.74 32.1507 158.726 32.1339 158.708 32.123C158.69 32.1121 158.669 32.1076 158.648 32.1104C158.627 32.1132 158.608 32.123 158.593 32.1383C156.609 34.2156 154.915 36.4435 153.51 38.8221C151.934 41.4961 150.861 43.6373 149.494 46.0129C149.49 46.0214 149.488 46.0313 149.49 46.0407C149.492 46.0501 149.498 46.0585 149.505 46.0643C149.513 46.0701 149.523 46.0729 149.532 46.0723C149.542 46.0717 149.551 46.0677 149.558 46.0609ZM172.45 42.3708C172.899 41.5359 172.774 40.3197 171.55 40.5461C167.862 41.2299 164.675 45.8454 163.463 49.0711C163.435 49.1475 163.457 49.1664 163.528 49.1276C166.585 47.4756 170.775 45.4806 172.45 42.3708ZM190.354 41.8639C186.301 42.1896 181.566 45.9338 179.499 49.3163C179.44 49.4139 179.461 49.4355 179.562 49.3811C179.865 49.2178 180.2 48.926 180.421 48.7966C183.856 46.7736 187.442 44.7043 190.422 42.0199C190.436 42.0075 190.445 41.9911 190.449 41.9729C190.453 41.9548 190.451 41.9359 190.444 41.9187C190.436 41.9016 190.424 41.8871 190.407 41.8772C190.391 41.8674 190.373 41.8627 190.354 41.8639ZM89.2639 47.6208C92.7297 47.998 96.4711 47.2372 99.5337 45.9577C101.185 45.2679 103.439 43.9363 104.167 42.3089C104.452 41.6698 104.864 39.6744 104.014 39.2148C101.376 37.7901 99.0779 38.66 96.6794 40.0583C93.5056 41.909 91.0176 44.3983 89.2154 47.5262C89.1828 47.5822 89.199 47.6137 89.2639 47.6208ZM119.139 43.8903C115.833 46.8618 115 51.0442 115.11 55.2756C115.109 55.289 115.114 55.3021 115.122 55.3126C115.13 55.3231 115.142 55.3303 115.155 55.333C115.169 55.3358 115.182 55.3338 115.194 55.3275C115.206 55.3211 115.215 55.3109 115.22 55.2984C115.537 54.6112 115.864 53.9249 116.201 53.2395C117.288 51.0298 118.124 48.7142 118.792 46.3448C119.02 45.5327 119.183 44.7394 119.28 43.9649C119.299 43.8152 119.252 43.7903 119.139 43.8903ZM141.839 70.0579C141.884 70.7588 142.359 73.7662 143.64 73.2809C144.07 73.1181 144.55 72.7203 145.082 72.0875C147.732 68.9346 149.483 65.3673 150.336 61.3856C150.644 59.9505 151.437 54.6916 149.674 54.0697C149.178 53.894 148.687 53.7366 148.202 53.5973C148.165 53.5866 148.126 53.5858 148.089 53.595C148.052 53.6042 148.018 53.6231 147.991 53.6497C147.177 54.4375 146.32 55.2058 145.42 55.9543C145.241 56.1011 145.111 56.2808 145.03 56.4932C143.905 59.3973 142.978 62.363 142.249 65.3904C141.878 66.9303 141.742 68.4861 141.839 70.0579ZM126.555 68.7422C126.571 69.3594 127.042 71.6085 128.135 70.8024C131.404 68.3905 135.934 59.2302 132.903 55.5595C132.886 55.5389 132.865 55.5227 132.84 55.5126C132.816 55.5025 132.789 55.4986 132.762 55.5014C132.736 55.5042 132.71 55.5136 132.688 55.5286C132.666 55.5437 132.648 55.564 132.636 55.5878C131.9 57.0066 131.043 58.3605 130.065 59.6496C129.452 60.4577 128.678 61.2039 127.947 61.9552C127.739 62.1683 127.588 62.4061 127.495 62.6686C126.815 64.5613 126.502 66.5858 126.555 68.7422Z" fill="white"/>
</svg>
