<svg width="190" height="80" viewBox="0 0 190 80" fill="none" xmlns="http://www.w3.org/2000/svg">
<path d="M21.1477 17.3242C20.5324 19.8364 17.9063 22.1929 15.4105 22.9152C11.1514 24.1465 7.70218 20.448 7.4465 16.6098C7.12483 11.7588 10.9947 7.43426 15.7635 6.39085C16.943 6.13241 18.6519 6.11635 19.8924 6.28972C25.2518 7.03616 29.2321 10.1712 28.9468 15.8506C28.7554 19.6646 26.6391 23.9153 23.5676 26.3392C17.8931 30.813 9.60081 31.7858 3.72181 27.0455C1.7044 25.4194 0.71797 23.1945 0.236301 20.6711C-0.827661 15.1025 1.82317 9.26905 5.74086 5.26397C10.7341 0.160901 17.6457 -0.880903 24.4963 0.645684C26.9552 1.19361 29.2816 2.18939 31.4755 3.63304C34.3392 5.51599 35.9508 8.52743 36.6106 11.8423C37.0774 14.1939 37.3595 16.4397 36.9768 18.671C36.8822 19.2146 36.7871 19.7583 36.6914 20.3019C36.4094 21.8831 35.2035 25.3199 33.1663 25.2316C31.3914 25.1545 32.5741 22.4353 32.716 21.5315C33.3956 17.1669 33.9631 10.9 30.7118 7.25768C28.5542 4.83858 23.6649 2.81437 20.4252 2.69077C16.717 2.5479 13.1028 3.67638 10.3002 6.08425C6.18459 9.61739 3.02075 15.6033 4.4839 20.9921C5.32187 24.0758 8.52201 25.9186 11.6413 26.0727C15.0377 26.2413 18.4061 24.8576 20.864 22.6215C23.3663 20.3436 26.3487 15.3947 24.4864 12.0204C23.0034 9.33326 18.3533 8.10204 15.5623 9.12619C12.735 10.1616 10.193 13.5615 10.5856 16.4814C10.8743 18.6212 12.73 21.0082 15.2505 19.9247C16.6543 19.3211 17.8139 18.2087 18.6107 16.9405C19.3068 15.8297 19.122 14.7991 19.3909 13.7284C19.4745 13.3988 19.6532 13.2329 19.927 13.2308C20.4582 13.2276 20.7106 13.8504 20.8805 14.2742C21.3005 15.3155 21.3896 16.3321 21.1477 17.3242Z" fill="#B3542C"/>
<path d="M65.8209 10.2194C65.2139 10.9369 63.9124 11.4506 63.5528 10.1118C62.9903 8.02659 62.8715 5.24631 64.0691 3.36657C65.039 1.8464 67.3962 -0.062229 68.9781 2.06311C71.1869 5.03281 67.6536 8.05709 65.8209 10.2194Z" fill="#59818A"/>
<path d="M50.8644 6.13883C52.4557 5.19066 54.0761 5.05582 55.7256 5.73431C57.9459 6.64769 58.7789 8.50817 58.9983 10.7009C59.4635 15.3882 56.8605 18.9744 54.3565 22.6359C54.2256 22.8253 54.1179 23.0875 54.0332 23.4225C54.0189 23.4771 54.0387 23.4937 54.0926 23.4722C56.0803 22.6889 58.3847 20.4865 59.033 18.512C59.7802 16.231 60.8161 13.8777 63.34 13.0783C64.1911 12.8086 64.8147 13.3512 64.8114 14.1779C64.8081 14.9002 64.3561 15.2502 64.173 15.8682C63.6968 17.4692 63.1129 18.9562 62.4212 20.3292C62.1341 20.9006 62.0192 21.4764 62.0764 22.0564C62.2331 23.6264 63.6732 22.729 63.9816 21.8253C64.4292 20.5122 64.8235 19.4581 65.1644 18.6629C65.8572 17.0497 67.4985 15.3963 69.3476 15.5167C69.7765 15.5445 70.2043 15.5964 70.631 15.6724C73.1317 16.1122 73.9532 18.4398 74.3161 20.5828C74.6119 22.3315 74.2715 23.9843 73.295 25.5414C73.2865 25.5551 73.2822 25.5708 73.2824 25.5868C73.2827 25.6028 73.2876 25.6184 73.2965 25.6318C73.3055 25.6452 73.3181 25.6559 73.333 25.6626C73.3479 25.6693 73.3645 25.6718 73.3808 25.6698C75.6275 25.3873 77.0989 27.0503 77.5789 28.983C78.562 32.94 75.55 36.8712 71.205 36.2885C71.1868 36.286 71.1682 36.2883 71.1512 36.2951C71.1342 36.3019 71.1193 36.313 71.1079 36.3273C71.0966 36.3416 71.0892 36.3585 71.0866 36.3765C71.0839 36.3945 71.0861 36.4128 71.0929 36.4298C72.5296 39.9196 76.1372 40.727 79.5369 39.5456C79.5795 39.5306 79.6248 39.5246 79.6699 39.528C79.715 39.5314 79.759 39.544 79.7988 39.565C79.8387 39.5861 79.8736 39.6151 79.9012 39.6502C79.9288 39.6853 79.9486 39.7257 79.9592 39.7687C80.3403 41.3145 77.9567 42.1685 76.7541 42.2504C76.3516 42.2771 75.9475 42.2985 75.5417 42.3146C72.5643 42.4366 70.5633 41.0898 68.7769 38.9596C66.5104 36.258 65.4398 33.6447 66.0436 29.9478C66.0454 29.9373 66.0438 29.9265 66.039 29.9169C66.0342 29.9073 66.0264 29.8994 66.0168 29.8943C66.0072 29.8892 65.9962 29.8871 65.9854 29.8884C65.9745 29.8896 65.9643 29.8941 65.9562 29.9012C65.6559 30.1602 65.3062 30.3395 64.907 30.439C64.8536 30.4527 64.7974 30.4529 64.7438 30.4397C64.6903 30.4264 64.6409 30.4002 64.6005 30.3634C64.56 30.3266 64.5297 30.2804 64.5124 30.229C64.495 30.1777 64.4912 30.1229 64.5012 30.0698C64.5639 29.7343 64.686 29.4807 64.912 29.1853C65.6125 28.266 66.2564 27.3104 66.8436 26.3183C67.9092 24.5189 71.7246 21.2923 69.6248 19.0225C69.5852 18.9808 69.545 18.9802 69.5043 19.0209C69.1766 19.3527 68.9275 19.7283 68.7571 20.1478C68.1369 21.6738 67.5221 23.202 66.9129 24.7324C66.7727 25.0855 66.4807 25.5799 66.1409 25.7677C65.2029 26.2878 64.598 26.6041 64.3264 26.7164C62.0583 27.6603 59.5097 25.7533 58.6915 23.7532C58.6651 23.689 58.6277 23.6825 58.5794 23.7339C56.7104 25.7388 54.3384 27.5078 51.4797 26.0711C48.5682 24.6104 49.4573 21.2458 50.6681 19.0161C51.5044 17.4799 52.5519 16.3193 53.5862 15.0239C54.8398 13.4539 55.3924 11.6539 55.244 9.62381C55.1516 8.35888 53.6917 8.35246 52.8637 8.88861C52.0306 9.42797 51.2388 10.5789 51.196 11.6352C51.1217 13.4443 50.6813 15.8184 48.8173 16.7366C47.5339 17.3675 46.2671 16.8747 45.9999 15.4364C45.8366 14.5503 46.4551 13.4331 46.7521 12.5678C47.4333 10.5821 47.3706 8.41506 46.5624 6.50803C46.1467 5.52884 44.6769 5.54489 43.994 6.17254C43.7664 6.38229 43.5646 6.77076 43.3886 7.33794C42.4946 10.2285 42.2653 13.1559 42.7008 16.1202C42.8162 16.9116 43.0158 17.6629 43.4233 18.435C44.1425 19.793 44.7506 21.1982 45.2477 22.6504C45.7079 23.9907 44.7924 24.8993 43.4398 24.3391C43.2825 24.2738 42.9509 24.0614 42.4451 23.7018C38.2222 20.6936 37.564 15.9276 37.8329 11.1199C37.9286 9.39105 38.534 7.68789 39.1163 6.06017C39.4869 5.02211 39.8712 4.24839 40.2693 3.73899C43.4925 -0.388093 49.4161 1.56067 50.7753 6.10512C50.7896 6.15434 50.8193 6.16558 50.8644 6.13883ZM74.2683 29.8017C74.2369 27.7245 71.7609 28.6845 70.7712 29.1275C70.4017 29.2929 70.3407 29.4421 70.3291 29.8162C70.2895 30.9388 70.3 32.0287 70.3605 33.086C70.3623 33.1179 70.3711 33.1491 70.3861 33.1774C70.4011 33.2058 70.4221 33.2307 70.4477 33.2506C70.4732 33.2704 70.5028 33.2848 70.5344 33.2927C70.566 33.3006 70.5989 33.3018 70.631 33.2963C72.5313 32.9753 74.2996 31.8596 74.2683 29.8017Z" fill="#59818A"/>
<path d="M57.8536 75.3922C57.6369 74.3884 57.4857 73.0716 57.3999 71.4417C57.2944 69.4652 56.9358 66.4098 56.3244 62.2758C56.1776 61.2886 55.8147 60.4426 55.4749 59.5068C55.4573 59.4565 55.4271 59.4474 55.3842 59.4795C54.8475 59.8851 54.2663 60.2195 53.6406 60.4827C53.579 60.5084 53.5537 60.5534 53.5647 60.6176C53.695 61.356 53.9029 62.1249 53.9639 62.8248C54.1058 64.4632 54.1591 66.1054 54.1239 67.7513C54.1118 68.3067 53.9546 68.7578 53.6521 69.1045C51.2026 71.9137 46.3479 70.9329 43.0472 70.737C42.2521 70.6899 41.2134 70.668 39.9312 70.6712C35.5246 70.6819 31.4294 70.6504 27.6453 70.5765C26.0122 70.5444 24.9516 70.0211 24.9235 68.2601C24.8971 66.5746 24.8955 64.7982 24.9186 62.9307C24.919 62.8632 24.8983 62.7972 24.859 62.7416C24.8198 62.6859 24.764 62.6432 24.6992 62.6193C24.0641 62.3882 23.4208 62.0463 22.6933 62.2437C22.6527 62.2546 22.6156 62.2751 22.5854 62.3035C22.5551 62.3318 22.5327 62.367 22.5201 62.4058C22.3277 63.0169 22.2106 63.6183 22.1688 64.2101C22.078 65.4991 21.9477 66.7897 21.9395 68.0627C21.923 70.4449 21.9433 72.4343 22.0005 74.031C22.0313 74.9257 22.0242 75.6384 21.9791 76.1692C21.504 76.0937 21.1312 75.991 20.6033 75.9701C19.6598 75.9316 18.9818 75.6394 18.8878 74.6281C18.68 72.3583 18.3797 70.058 18.416 67.8107C18.4457 66.0139 18.5084 64.0239 18.6041 61.8408C18.6316 61.2286 18.5617 60.5914 18.3946 59.9289C18.3814 59.8754 18.3506 59.8348 18.3022 59.8069C9.94227 54.9077 4.27276 46.3951 3.53541 36.8263C3.44743 35.6748 3.52166 34.2343 3.7581 32.5049C3.89336 31.5161 4.4938 27.8513 6.27861 29.2479C6.35559 29.3078 6.40673 29.4309 6.43202 29.6171C6.45952 29.8151 6.45622 30.134 6.42213 30.5738C6.22748 33.0909 6.25387 35.8374 6.77678 38.2967C8.38344 45.8445 12.9445 52.2687 19.6647 56.3605C23.3267 58.5902 27.3995 59.8021 31.6702 60.2965C35.5796 60.7476 39.4412 60.9178 43.4216 60.1039C49.1769 58.9273 54.7029 56.1165 59.1699 52.4742C64.112 48.4434 65.8935 42.4173 66.3867 36.3511C66.3876 36.3367 66.3932 36.323 66.4027 36.3119C66.4122 36.3009 66.4251 36.293 66.4395 36.2896C66.4538 36.2862 66.469 36.2874 66.4826 36.293C66.4963 36.2985 66.5078 36.3082 66.5154 36.3206C67.328 37.6048 68.1539 38.9008 68.993 40.2085C69.2883 40.6692 69.3806 40.7671 69.2751 41.3498C68.7439 44.2778 67.7674 47.0431 66.3454 49.6457C64.5936 52.853 61.857 55.4936 58.7014 57.428C58.6719 57.4463 58.6494 57.4737 58.6378 57.5058C58.6261 57.5378 58.6259 57.5726 58.6371 57.6045C59.3497 59.6336 59.8842 61.7236 60.2405 63.8746C60.7914 67.1953 61.0845 69.3132 61.1197 70.2282C61.1823 71.8281 61.2368 72.8581 61.283 73.3183C61.4743 75.2365 59.2903 75.3329 57.8536 75.3922ZM27.637 67.366C28.1236 67.3355 28.6416 67.2264 29.0738 67.2071C31.7032 67.0899 34.4662 66.878 36.9537 66.8042C40.8346 66.6908 44.7143 66.733 48.593 66.931C49.2577 66.9647 50.1897 66.7897 50.8034 66.9583C50.8282 66.9653 50.8544 66.966 50.8795 66.9602C50.9047 66.9545 50.9279 66.9425 50.9471 66.9255C50.9662 66.9085 50.9806 66.8869 50.989 66.8629C50.9973 66.8388 50.9993 66.8131 50.9947 66.7881C50.6967 65.2 50.6554 63.6049 50.871 62.0029C50.893 61.836 50.8254 61.7867 50.6681 61.8552C47.5471 63.2004 44.3074 63.9485 40.8846 64.2952C38.8457 64.5023 37.3842 64.6355 35.5483 64.4509C34.475 64.3417 33.6227 64.2647 32.9915 64.2198C31.1737 64.0913 29.3933 63.811 27.6502 63.3786C27.5524 63.3551 27.5034 63.3925 27.5034 63.491L27.5232 67.2617C27.5232 67.2759 27.5262 67.2901 27.532 67.3032C27.5378 67.3163 27.5462 67.3281 27.5569 67.3378C27.5676 67.3476 27.5802 67.3552 27.594 67.36C27.6077 67.3649 27.6224 67.3669 27.637 67.366Z" fill="#B3542C"/>
<path d="M36.0778 40.8217C34.194 39.6435 34.9907 34.8486 37.8676 35.3254C39.72 35.6336 40.2033 38.1378 39.8322 39.5953C39.433 41.162 37.3067 41.5906 36.0778 40.8217Z" fill="#B3542C"/>
<path d="M28.0247 41.6741C26.9085 40.5975 26.528 39.3524 26.8832 37.9387C27.3814 35.961 29.6412 34.9642 31.0137 36.8969C32.032 38.3309 32.1172 39.865 31.2693 41.4991C30.6607 42.6726 28.8561 42.4751 28.0247 41.6741Z" fill="#B3542C"/>
<path d="M34.801 46.8462C34.0175 48.8929 31.6174 49.8239 29.501 49.5093C27.6618 49.2348 27.6238 46.546 28.8676 47.0725C29.7006 47.4257 30.8685 46.7724 30.8438 45.8397C30.8289 45.2891 30.7217 44.6839 30.9345 44.1831C31.3062 43.3066 31.9973 42.8251 33.008 42.7384C33.5111 42.695 33.8443 43.0048 34.4117 42.7978C36.0102 42.2183 37.8676 42.2552 38.4993 44.1317C38.6429 44.5587 38.5983 45.0836 38.6511 45.5684C38.6566 45.6241 38.683 45.6674 38.7303 45.6985C39.3588 46.119 40.7015 46.0725 41.3415 45.7787C41.6516 45.6358 41.9749 45.4207 42.323 45.4801C43.0702 45.6102 43.4084 46.2763 43.0043 46.9281C42.3263 48.0244 40.1406 48.4161 38.8903 48.392C37.3716 48.361 36.0602 47.8345 34.9561 46.8125C34.9447 46.802 34.9308 46.7943 34.9157 46.7902C34.9006 46.7862 34.8847 46.7858 34.8693 46.7891C34.854 46.7924 34.8398 46.7994 34.8279 46.8094C34.8159 46.8193 34.8067 46.832 34.801 46.8462Z" fill="#B3542C"/>
<path d="M57.8536 75.3922C53.8666 77.0312 49.3534 78.6942 45.4918 79.4615C42.8443 79.9865 39.6425 80.0908 36.7327 79.9319C35.2398 79.85 33.7503 79.8628 32.2343 79.6156C31.0714 79.4262 29.8705 78.9848 28.6927 78.6493C26.7166 78.0858 24.813 77.2672 22.85 76.6427C22.5333 76.5416 22.2776 76.3201 21.9791 76.1692C22.0242 75.6384 22.0313 74.9257 22.0005 74.031C21.9433 72.4343 21.923 70.4449 21.9395 68.0627C21.9477 66.7897 22.078 65.4991 22.1688 64.2101C22.2106 63.6183 22.3277 63.0169 22.5201 62.4058C22.5327 62.367 22.5551 62.3318 22.5854 62.3035C22.6156 62.2751 22.6527 62.2546 22.6933 62.2437C23.4208 62.0463 24.0641 62.3882 24.6992 62.6193C24.764 62.6432 24.8198 62.6859 24.859 62.7416C24.8983 62.7972 24.919 62.8632 24.9186 62.9307C24.8955 64.7982 24.8971 66.5746 24.9235 68.2601C24.9516 70.0211 26.0122 70.5444 27.6453 70.5765C31.4294 70.6504 35.5246 70.6819 39.9312 70.6712C41.2134 70.668 42.2521 70.6899 43.0472 70.737C46.3479 70.9329 51.2026 71.9137 53.6521 69.1045C53.9546 68.7578 54.1118 68.3067 54.1239 67.7513C54.1591 66.1054 54.1058 64.4632 53.9639 62.8248C53.9029 62.1249 53.695 61.356 53.5647 60.6176C53.5537 60.5534 53.579 60.5084 53.6406 60.4827C54.2663 60.2195 54.8475 59.8851 55.3842 59.4795C55.4271 59.4474 55.4573 59.4565 55.4749 59.5068C55.8147 60.4426 56.1776 61.2886 56.3244 62.2758C56.9358 66.4098 57.2944 69.4652 57.3999 71.4417C57.4857 73.0716 57.6369 74.3884 57.8536 75.3922Z" fill="#59818A"/>
<path d="M115.836 58.0506C112.967 59.1768 110.122 59.3018 107.523 57.7009C107.506 57.6896 107.484 57.6857 107.463 57.69C107.442 57.6942 107.423 57.7063 107.41 57.7239C102.209 64.8364 91.8263 69.0267 83.348 65.5703C76.4952 62.7789 73.294 56.1302 73.8405 48.9586C74.1839 44.4474 76.0929 39.9963 78.8914 36.484C82.5782 31.8563 92.4371 24.2229 98.5534 29.1461C99.3859 29.817 100.392 30.485 100.956 31.366C102.531 33.8354 102.132 36.5638 100.403 38.8209C98.1641 41.7445 94.12 42.5538 90.5894 43.0078C88.6351 43.2597 86.8254 43.3856 85.1604 43.3856C84.1823 43.3858 83.271 43.1211 82.3747 42.8039C82.3468 42.7944 82.3164 42.7958 82.2896 42.808C82.2628 42.8201 82.2416 42.8419 82.2303 42.8691C81.6733 44.22 81.2601 45.5084 80.9905 46.7343C80.2995 49.8814 80.4728 54.2824 82.8254 56.7807C83.4709 57.4657 84.3611 58.0486 85.4959 58.5294C89.0129 60.0181 92.5105 59.8286 96.0272 58.4603C98.9138 57.3364 101.745 55.606 103.916 53.3405C103.954 53.3001 103.966 53.2538 103.951 53.2017C102.046 46.1318 104.316 38.6397 110.241 34.2112C111.476 33.2882 113.235 33.1946 114.411 34.2061C115.534 35.1688 115.877 37.0643 115.697 38.5171C115.05 43.7366 113.075 49.2407 109.955 53.6023C109.946 53.615 109.94 53.6296 109.938 53.645C109.936 53.6604 109.938 53.676 109.943 53.6907C109.948 53.7054 109.956 53.7186 109.968 53.7294C109.979 53.7401 109.992 53.7481 110.007 53.7526C112.943 54.6157 116.272 52.4038 118.223 50.3939C118.541 50.0664 118.792 49.6122 119.003 49.1371C122.03 42.3129 125.913 34.9503 129.702 28.5525C130.276 27.5835 130.976 26.5352 131.801 25.4075C132.579 24.344 134.285 21.696 135.92 22.5354C138.797 24.0151 134.902 33.032 133.808 35.008C131.887 38.4785 129.784 41.8284 127.497 45.0578C127.486 45.0732 127.48 45.0912 127.478 45.1099C127.476 45.1287 127.48 45.1475 127.488 45.1646C127.496 45.1816 127.508 45.1962 127.524 45.2069C127.539 45.2175 127.557 45.2239 127.576 45.2253C129.759 45.403 131.887 45.7849 133.947 45.8562C134.09 45.8608 134.204 45.7724 134.287 45.5909C136.377 41.0432 138.736 36.6419 141.364 32.3871C143.002 29.7316 144.55 27.4528 146.648 25.2489C147.663 24.1834 148.958 23.0951 150.54 23.3411C152.164 23.5935 152.662 25.4468 152.381 26.8361C151.064 33.3602 147.133 39.6912 142.402 44.2505C142.394 44.2583 142.388 44.2682 142.385 44.2791C142.382 44.2901 142.382 44.3017 142.385 44.3127C142.388 44.3238 142.394 44.3338 142.403 44.3418C142.411 44.3498 142.422 44.3554 142.433 44.358C144.51 44.8023 146.91 45.1127 149.007 44.6554C149.824 44.478 149.869 43.8659 150.12 43.1813C151.67 38.9754 154.742 35.7333 158.559 33.481C159.86 32.7121 161.579 32.2302 163.014 32.7024C165.722 33.5953 165.541 36.7013 164.43 38.7072C162.239 42.6558 157.74 45.2745 153.669 46.8868C153.231 47.0597 152.84 47.4005 152.883 47.9145C152.969 48.9331 154.199 49.4923 155.073 49.4622C155.807 49.4379 156.585 49.2929 157.344 49.0698C159.548 48.4217 161.672 47.5691 163.716 46.5119C163.763 46.4877 163.8 46.4474 163.819 46.3983C164.241 45.3439 164.557 44.6044 164.767 44.1797C167.134 39.4017 171.61 36.2488 176.389 34.239C178.01 33.5583 180.732 32.8823 182.264 34.0818C183.721 35.2219 183.38 37.4918 182.402 38.8568C180.632 41.3234 177.702 43.3303 175.088 44.9532C172.77 46.3917 170.441 47.8045 168.1 49.1917C168.087 49.2 168.076 49.2118 168.068 49.2258C168.061 49.2398 168.057 49.2555 168.057 49.2714C168.058 49.2873 168.063 49.3028 168.071 49.3163C168.079 49.3297 168.091 49.3407 168.105 49.3482C170.343 50.511 172.959 50.1289 175.323 49.6257C179.232 48.7934 183.161 48.0741 187.113 47.4679C187.998 47.332 189.156 47.5096 188.9 48.7419C188.725 49.5794 187.584 50.1001 186.854 50.4307C184.309 51.5831 181.7 52.566 179.028 53.3793C174.51 54.7549 167.716 55.9797 164.457 51.3203C164.408 51.2509 164.337 51.2007 164.255 51.1784C164.173 51.1561 164.086 51.163 164.009 51.198C161.865 52.162 159.628 52.8754 157.299 53.3381C153.841 54.0254 150.516 52.5862 149.429 49.0694C149.415 49.0226 149.385 48.9823 149.344 48.9555C149.303 48.9286 149.255 48.9167 149.206 48.922C147.792 49.078 146.386 49.0264 144.988 48.7673C144.918 48.7538 144.89 48.7817 144.904 48.851C145.012 49.4579 145.166 50.0956 145.215 50.6551C145.703 56.2254 144.351 62.2131 140.757 66.7253C139.616 68.1564 138.246 69.3642 136.495 69.9592C134.106 70.7724 131.825 69.5869 130.631 67.4371C128.911 64.3401 129.223 60.5319 130.037 57.251C130.671 54.6999 131.491 52.2131 132.496 49.7905C132.504 49.7725 132.507 49.7531 132.505 49.7337C132.503 49.7144 132.497 49.6957 132.487 49.6794C132.476 49.663 132.462 49.6494 132.445 49.6396C132.428 49.6299 132.41 49.6244 132.39 49.6236C130.919 49.5485 129.463 49.3645 128.023 49.0714C128.007 49.0681 127.99 49.0695 127.975 49.0754C127.96 49.0814 127.946 49.0917 127.937 49.105C127.928 49.1183 127.922 49.1341 127.922 49.1505C127.921 49.1668 127.925 49.1829 127.934 49.1968C128.533 50.2227 128.883 51.3483 128.984 52.5737C129.355 57.071 127.466 61.7389 124.402 64.9619C123.497 65.9141 122.246 66.7994 120.921 67.1469C118.04 67.9037 116.102 65.6151 115.649 63.032C115.389 61.5409 115.518 59.643 115.892 58.0995C115.904 58.0463 115.886 58.03 115.836 58.0506ZM134.62 24.6999C132.76 27.2962 131.089 30.0068 129.607 32.8317C127.772 36.327 125.955 39.8263 124.271 43.3985C124.07 43.8235 123.844 44.2346 123.592 44.6319C123.545 44.7052 123.535 44.7757 123.561 44.8433C123.565 44.8534 123.571 44.8623 123.58 44.869C123.588 44.8758 123.598 44.88 123.609 44.8815C123.62 44.8829 123.631 44.8814 123.641 44.8771C123.65 44.8728 123.659 44.8659 123.665 44.8571C125.796 41.8482 127.861 38.8013 129.861 35.7164C132.117 32.236 133.976 28.6095 135.032 24.5759C135.037 24.5596 135.036 24.5424 135.032 24.5262C135.027 24.51 135.018 24.4955 135.005 24.4842C134.992 24.4728 134.976 24.4652 134.96 24.462C134.943 24.4589 134.925 24.4604 134.909 24.4663C134.798 24.5082 134.701 24.586 134.62 24.6999ZM140.57 40.1436C144.452 36.2937 147.556 32.1425 149.36 26.917C149.367 26.8979 149.366 26.8771 149.359 26.8582C149.353 26.8392 149.339 26.8232 149.322 26.8127C149.305 26.8023 149.285 26.798 149.265 26.8007C149.245 26.8034 149.226 26.8128 149.212 26.8274C147.314 28.8142 145.694 30.9451 144.351 33.2201C142.843 35.7776 141.817 37.8255 140.509 40.0976C140.505 40.1058 140.503 40.1152 140.505 40.1242C140.507 40.1332 140.513 40.1412 140.52 40.1468C140.527 40.1523 140.536 40.155 140.546 40.1544C140.555 40.1539 140.564 40.15 140.57 40.1436ZM162.466 36.6141C162.895 35.8157 162.775 34.6524 161.604 34.869C158.077 35.523 155.029 39.9374 153.87 43.0226C153.843 43.0957 153.864 43.1137 153.932 43.0767C156.856 41.4966 160.863 39.5885 162.466 36.6141ZM179.589 36.1293C175.713 36.4409 171.184 40.022 169.207 43.2571C169.151 43.3505 169.171 43.3712 169.267 43.3191C169.557 43.1629 169.878 42.8839 170.089 42.7601C173.375 40.8252 176.804 38.846 179.654 36.2785C179.667 36.2667 179.677 36.251 179.68 36.2336C179.684 36.2163 179.682 36.1982 179.675 36.1818C179.668 36.1654 179.656 36.1515 179.64 36.1421C179.625 36.1327 179.607 36.1282 179.589 36.1293ZM82.9024 41.6354C86.2173 41.9963 89.7957 41.2686 92.725 40.0448C94.3043 39.385 96.4604 38.1115 97.1565 36.5549C97.4287 35.9437 97.8229 34.0352 97.0103 33.5956C94.4874 32.233 92.289 33.065 89.995 34.4024C86.9594 36.1725 84.5797 38.5534 82.856 41.545C82.8249 41.5986 82.8404 41.6287 82.9024 41.6354ZM111.477 38.0675C108.315 40.9096 107.518 44.9098 107.623 48.9568C107.622 48.9696 107.626 48.9822 107.634 48.9922C107.642 49.0023 107.654 49.0092 107.666 49.0118C107.679 49.0144 107.692 49.0125 107.703 49.0065C107.714 49.0004 107.723 48.9906 107.728 48.9787C108.031 48.3214 108.344 47.665 108.666 47.0095C109.706 44.896 110.506 42.6812 111.144 40.415C111.363 39.6384 111.518 38.8796 111.611 38.1388C111.629 37.9956 111.585 37.9718 111.477 38.0675ZM133.188 63.0952C133.231 63.7656 133.685 66.642 134.91 66.1778C135.321 66.0221 135.781 65.6417 136.289 65.0365C138.824 62.0209 140.499 58.609 141.315 54.8007C141.609 53.4281 142.368 48.3983 140.681 47.8035C140.207 47.6355 139.737 47.4849 139.273 47.3517C139.238 47.3414 139.2 47.3407 139.165 47.3495C139.129 47.3583 139.097 47.3763 139.071 47.4017C138.293 48.1553 137.473 48.89 136.613 49.606C136.442 49.7464 136.317 49.9183 136.239 50.1215C135.163 52.899 134.277 55.7355 133.579 58.6311C133.225 60.1039 133.094 61.5919 133.188 63.0952ZM118.569 61.8368C118.585 62.4272 119.035 64.5783 120.081 63.8074C123.207 61.5005 127.54 52.7392 124.641 49.2284C124.625 49.2087 124.604 49.1932 124.581 49.1835C124.557 49.1738 124.532 49.1702 124.506 49.1728C124.481 49.1755 124.457 49.1845 124.435 49.1989C124.414 49.2133 124.397 49.2327 124.385 49.2554C123.682 50.6124 122.862 51.9074 121.926 53.1403C121.34 53.9133 120.6 54.627 119.901 55.3455C119.702 55.5493 119.558 55.7767 119.468 56.0278C118.818 57.8381 118.518 59.7744 118.569 61.8368Z" fill="#B3542C"/>
</svg>
