<svg width="40" height="40" viewBox="0 0 40 40" fill="none" xmlns="http://www.w3.org/2000/svg">
<path d="M4.08988 13.2325C4.5587 12.7638 5.19447 12.5005 5.85738 12.5005C6.52029 12.5005 7.15606 12.7638 7.62488 13.2325L19.9999 25.6075L32.3749 13.2325C32.8464 12.7771 33.4779 12.5251 34.1334 12.5308C34.7889 12.5365 35.4159 12.7994 35.8794 13.2629C36.3429 13.7264 36.6059 14.3535 36.6116 15.009C36.6173 15.6644 36.3653 16.2959 35.9099 16.7675L21.7674 30.91C21.2986 31.3786 20.6628 31.6419 19.9999 31.6419C19.337 31.6419 18.7012 31.3786 18.2324 30.91L4.08988 16.7675C3.6212 16.2986 3.35791 15.6629 3.35791 15C3.35791 14.337 3.6212 13.7013 4.08988 13.2325Z" fill="#59818A"/>
</svg>
