<svg width="40" height="40" viewBox="0 0 40 40" fill="none" xmlns="http://www.w3.org/2000/svg">
<path d="M0 0H8.14812L9.08026 3.63636H40L33.7299 23.6364H13.3065L12.4514 27.2727H37.6277V30.9091H8.07286L10.204 21.8382L5.5347 3.63636H0V0ZM13.2792 20H31.2635L35.2555 7.27273H10.0141L13.2792 20ZM6.84141 36.3636C6.84141 35.3992 7.2018 34.4743 7.84331 33.7923C8.48481 33.1104 9.35488 32.7273 10.2621 32.7273C11.1693 32.7273 12.0394 33.1104 12.6809 33.7923C13.3224 34.4743 13.6828 35.3992 13.6828 36.3636C13.6828 37.3281 13.3224 38.253 12.6809 38.9349C12.0394 39.6169 11.1693 40 10.2621 40C9.35488 40 8.48481 39.6169 7.84331 38.9349C7.2018 38.253 6.84141 37.3281 6.84141 36.3636ZM30.7863 36.3636C30.7863 35.3992 31.1467 34.4743 31.7882 33.7923C32.4297 33.1104 33.2998 32.7273 34.207 32.7273C35.1143 32.7273 35.9843 33.1104 36.6258 33.7923C37.2673 34.4743 37.6277 35.3992 37.6277 36.3636C37.6277 37.3281 37.2673 38.253 36.6258 38.9349C35.9843 39.6169 35.1143 40 34.207 40C33.2998 40 32.4297 39.6169 31.7882 38.9349C31.1467 38.253 30.7863 37.3281 30.7863 36.3636Z" fill="white"/>
</svg>
