<svg width="30" height="30" viewBox="0 0 30 30" fill="none" xmlns="http://www.w3.org/2000/svg">
<g id="zondicons:close-outline" clip-path="url(#clip0_799_2328)">
<path id="Vector" d="M4.39475 25.605C2.9621 24.2213 1.81937 22.5661 1.03323 20.7361C0.247097 18.906 -0.166697 16.9377 -0.184004 14.946C-0.201311 12.9543 0.178214 10.9791 0.932428 9.13569C1.68664 7.29224 2.80044 5.61746 4.20883 4.20907C5.61722 2.80068 7.292 1.68689 9.13544 0.932672C10.9789 0.178458 12.9541 -0.201067 14.9458 -0.18376C16.9375 -0.166453 18.9058 0.247341 20.7358 1.03348C22.5659 1.81961 24.2211 2.96234 25.6048 4.395C28.3371 7.22403 29.849 11.0131 29.8149 14.946C29.7807 18.879 28.2032 22.6412 25.422 25.4223C22.6409 28.2034 18.8787 29.7809 14.9458 29.8151C11.0128 29.8493 7.22379 28.3374 4.39475 25.605ZM6.50975 23.49C8.76144 25.7417 11.8154 27.0067 14.9998 27.0067C18.1841 27.0067 21.2381 25.7417 23.4898 23.49C25.7414 21.2383 27.0064 18.1844 27.0064 15C27.0064 11.8156 25.7414 8.76168 23.4898 6.51C21.2381 4.25831 18.1841 2.99332 14.9998 2.99332C11.8154 2.99332 8.76144 4.25831 6.50975 6.51C4.25806 8.76168 2.99308 11.8156 2.99308 15C2.99308 18.1844 4.25806 21.2383 6.50975 23.49ZM21.3598 10.755L17.1148 15L21.3598 19.245L19.2448 21.36L14.9998 17.115L10.7548 21.36L8.63975 19.245L12.8848 15L8.63975 10.755L10.7548 8.64L14.9998 12.885L19.2448 8.64L21.3598 10.755Z" fill="#59818A"/>
</g>
<defs>
<clipPath id="clip0_799_2328">
<rect width="30" height="30" fill="white"/>
</clipPath>
</defs>
</svg>
