<svg width="35" height="37" viewBox="0 0 35 37" fill="none" xmlns="http://www.w3.org/2000/svg">
<ellipse cx="17.5" cy="18.5" rx="17.5" ry="18.5" fill="#B3542C"/>
<path d="M11.064 18.2155L11.064 18.2155L18.5625 10.5088C18.6646 10.4021 18.7868 10.3166 18.922 10.2571C19.0582 10.1972 19.2049 10.1649 19.3536 10.1621C19.5023 10.1592 19.6501 10.1859 19.7885 10.2406C19.9268 10.2953 20.0529 10.3768 20.1595 10.4806C20.2662 10.5843 20.3511 10.7082 20.4096 10.845C20.468 10.9817 20.4987 11.1288 20.5 11.2775C20.5012 11.4263 20.4729 11.5738 20.4168 11.7115C20.361 11.8483 20.2788 11.9728 20.175 12.0778L13.4392 19L20.175 25.9222C20.2788 26.0272 20.361 26.1517 20.4168 26.2885C20.4729 26.4262 20.5012 26.5737 20.5 26.7225C20.4987 26.8712 20.468 27.0183 20.4096 27.1551C20.3511 27.2919 20.2662 27.4157 20.1595 27.5194C20.0529 27.6232 19.9268 27.7047 19.7885 27.7594C19.6501 27.8141 19.5023 27.8408 19.3536 27.8379C19.2049 27.8351 19.0582 27.8028 18.922 27.7429C18.7868 27.6834 18.6646 27.5979 18.5624 27.4912C18.5617 27.4904 18.561 27.4897 18.5603 27.489L11.064 19.7845L11.064 19.7845C10.8597 19.5745 10.7454 19.293 10.7454 19C10.7454 18.707 10.8597 18.4255 11.064 18.2155Z" fill="#D7C3AB" stroke="#D7C3AB"/>
</svg>
