<svg width="35" height="37" viewBox="0 0 35 37" fill="none" xmlns="http://www.w3.org/2000/svg">
<ellipse cx="17.5" cy="18.5" rx="17.5" ry="18.5" fill="#B3542C"/>
<path d="M22.936 18.2155L22.936 18.2155L15.4375 10.5088C15.3354 10.4021 15.2132 10.3166 15.078 10.2571C14.9418 10.1972 14.7951 10.1649 14.6464 10.1621C14.4977 10.1592 14.3499 10.1859 14.2115 10.2406C14.0732 10.2953 13.9471 10.3768 13.8405 10.4806C13.7338 10.5843 13.6489 10.7082 13.5904 10.845C13.532 10.9817 13.5013 11.1288 13.5 11.2775C13.4988 11.4263 13.5271 11.5738 13.5832 11.7115C13.639 11.8483 13.7212 11.9728 13.825 12.0778L20.5608 19L13.825 25.9222C13.7212 26.0272 13.639 26.1517 13.5832 26.2885C13.5271 26.4262 13.4988 26.5737 13.5 26.7225C13.5013 26.8712 13.532 27.0183 13.5904 27.1551C13.6489 27.2919 13.7338 27.4157 13.8405 27.5194C13.9471 27.6232 14.0732 27.7047 14.2115 27.7594C14.3499 27.8141 14.4977 27.8408 14.6464 27.8379C14.7951 27.8351 14.9418 27.8028 15.078 27.7429C15.2132 27.6834 15.3354 27.5979 15.4376 27.4912C15.4383 27.4904 15.439 27.4897 15.4397 27.489L22.936 19.7845L22.936 19.7845C23.1403 19.5745 23.2546 19.293 23.2546 19C23.2546 18.707 23.1403 18.4255 22.936 18.2155Z" fill="#D7C3AB" stroke="#D7C3AB"/>
</svg>
