<svg width="35" height="35" viewBox="0 0 35 35" fill="none" xmlns="http://www.w3.org/2000/svg">
<circle cx="17.5" cy="17.5" r="16.5" fill="white"/>
<path d="M17.5 16.3374L21.2042 21.457C21.5335 21.9125 22.0637 22.1797 22.6211 22.1797H24.4531C25.1141 22.1797 25.5014 21.428 25.1073 20.8893C25.1068 20.8886 25.1063 20.8879 25.1058 20.8873L18.1551 11.2811L18.1544 11.2801C17.8297 10.8337 17.1664 10.8337 16.8417 11.2801L16.841 11.2811L9.88789 20.8905L9.88662 20.8923C9.50168 21.4291 9.88466 22.1797 10.5469 22.1797H12.3789C12.941 22.1797 13.4669 21.9119 13.7957 21.4572C13.7958 21.4571 13.7958 21.457 13.7958 21.457L17.5 16.3374ZM0.5 17.5C0.5 8.11208 8.11208 0.5 17.5 0.5C26.8879 0.5 34.5 8.11208 34.5 17.5C34.5 26.8879 26.8879 34.5 17.5 34.5C8.11208 34.5 0.5 26.8879 0.5 17.5Z" fill="#B3542C" stroke="white"/>
</svg>
