<svg width="36" height="40" viewBox="0 0 36 40" fill="none" xmlns="http://www.w3.org/2000/svg">
<path d="M24.5039 23.75C22.2617 23.75 21.1836 25 17.5039 25C13.8242 25 12.7539 23.75 10.5039 23.75C4.70703 23.75 0.00390625 28.4531 0.00390625 34.25V36.25C0.00390625 38.3203 1.68359 40 3.75391 40H31.2539C33.3242 40 35.0039 38.3203 35.0039 36.25V34.25C35.0039 28.4531 30.3008 23.75 24.5039 23.75ZM31.2539 36.25H3.75391V34.25C3.75391 30.5312 6.78516 27.5 10.5039 27.5C11.6445 27.5 13.4961 28.75 17.5039 28.75C21.543 28.75 23.3555 27.5 24.5039 27.5C28.2227 27.5 31.2539 30.5312 31.2539 34.25V36.25ZM17.5039 22.5C23.7148 22.5 28.7539 17.4609 28.7539 11.25C28.7539 5.03906 23.7148 0 17.5039 0C11.293 0 6.25391 5.03906 6.25391 11.25C6.25391 17.4609 11.293 22.5 17.5039 22.5ZM17.5039 3.75C21.6367 3.75 25.0039 7.11719 25.0039 11.25C25.0039 15.3828 21.6367 18.75 17.5039 18.75C13.3711 18.75 10.0039 15.3828 10.0039 11.25C10.0039 7.11719 13.3711 3.75 17.5039 3.75Z" fill="white"/>
</svg>
