<svg width="40" height="40" viewBox="0 0 40 40" fill="none" xmlns="http://www.w3.org/2000/svg">
<g id="user-icon" clip-path="url(#clip0_728_1239)">
<g id="Group">
<path id="Vector" fill-rule="evenodd" clip-rule="evenodd" d="M20.0002 3.33325C29.2052 3.33325 36.6668 10.7949 36.6668 19.9999C36.6727 23.8464 35.3425 27.5755 32.9035 30.5499L32.9368 30.5866L32.7168 30.7733C31.1539 32.622 29.2062 34.1071 27.0097 35.1251C24.8132 36.143 22.421 36.6691 20.0002 36.6666C15.0835 36.6666 10.6668 34.5383 7.61685 31.1549L7.28351 30.7716L7.06351 30.5883L7.09685 30.5483C4.65811 27.5744 3.32788 23.8459 3.33351 19.9999C3.33351 10.7949 10.7952 3.33325 20.0002 3.33325ZM20.0002 28.3332C16.9002 28.3332 14.0985 29.3199 12.0118 30.6749C14.3157 32.4043 17.1195 33.3373 20.0002 33.3332C22.8809 33.3373 25.6847 32.4043 27.9885 30.6749C25.604 29.1476 22.8319 28.335 20.0002 28.3332ZM20.0002 6.66658C17.4911 6.66651 15.0328 7.37444 12.908 8.709C10.7833 10.0436 9.07819 11.9506 7.98878 14.2109C6.89937 16.4712 6.46985 18.993 6.7496 21.4865C7.02934 23.9799 8.00699 26.3439 9.57018 28.3066C12.2718 26.3682 15.9585 24.9999 20.0002 24.9999C24.0418 24.9999 27.7285 26.3682 30.4302 28.3066C31.9934 26.3439 32.971 23.9799 33.2508 21.4865C33.5305 18.993 33.101 16.4712 32.0116 14.2109C30.9222 11.9506 29.2171 10.0436 27.0923 8.709C24.9675 7.37444 22.5093 6.66651 20.0002 6.66658ZM20.0002 9.99992C21.7683 9.99992 23.464 10.7023 24.7142 11.9525C25.9645 13.2028 26.6668 14.8985 26.6668 16.6666C26.6668 18.4347 25.9645 20.1304 24.7142 21.3806C23.464 22.6309 21.7683 23.3333 20.0002 23.3333C18.2321 23.3333 16.5364 22.6309 15.2861 21.3806C14.0359 20.1304 13.3335 18.4347 13.3335 16.6666C13.3335 14.8985 14.0359 13.2028 15.2861 11.9525C16.5364 10.7023 18.2321 9.99992 20.0002 9.99992ZM20.0002 13.3333C19.1161 13.3333 18.2683 13.6844 17.6432 14.3096C17.018 14.9347 16.6668 15.7825 16.6668 16.6666C16.6668 17.5506 17.018 18.3985 17.6432 19.0236C18.2683 19.6487 19.1161 19.9999 20.0002 19.9999C20.8842 19.9999 21.7321 19.6487 22.3572 19.0236C22.9823 18.3985 23.3335 17.5506 23.3335 16.6666C23.3335 15.7825 22.9823 14.9347 22.3572 14.3096C21.7321 13.6844 20.8842 13.3333 20.0002 13.3333Z" fill="#59818A"/>
</g>
</g>
<defs>
<clipPath id="clip0_728_1239">
<rect width="40" height="40" fill="white"/>
</clipPath>
</defs>
</svg>
